<mxfile host="app.diagrams.net" modified="2024-07-11T06:56:31.832Z" agent="Mozilla/5.0 (Macintosh; Intel Mac OS X 10_15_7) AppleWebKit/537.36 (KHTML, like Gecko) Chrome/126.0.0.0 Safari/537.36" etag="8L28mOdZhZPMbEz7F3xD" version="24.6.4" type="github">
  <diagram name="Page-1" id="74e2e168-ea6b-b213-b513-2b3c1d86103e">
    <mxGraphModel dx="1194" dy="664" grid="1" gridSize="10" guides="1" tooltips="1" connect="1" arrows="1" fold="1" page="1" pageScale="1" pageWidth="1100" pageHeight="850" background="none" math="0" shadow="0">
      <root>
        <mxCell id="0" />
        <mxCell id="1" parent="0" />
        <mxCell id="GZFzV3UslixxGB8_kos3-3" value="" style="edgeStyle=orthogonalEdgeStyle;rounded=0;orthogonalLoop=1;jettySize=auto;html=1;" edge="1" parent="1" source="GZFzV3UslixxGB8_kos3-1" target="GZFzV3UslixxGB8_kos3-2">
          <mxGeometry relative="1" as="geometry" />
        </mxCell>
        <mxCell id="GZFzV3UslixxGB8_kos3-1" value="老师上课" style="strokeWidth=2;html=1;shape=mxgraph.flowchart.start_1;whiteSpace=wrap;" vertex="1" parent="1">
          <mxGeometry x="370" y="40" width="100" height="60" as="geometry" />
        </mxCell>
        <mxCell id="GZFzV3UslixxGB8_kos3-5" value="" style="edgeStyle=orthogonalEdgeStyle;rounded=0;orthogonalLoop=1;jettySize=auto;html=1;" edge="1" parent="1" source="GZFzV3UslixxGB8_kos3-2" target="GZFzV3UslixxGB8_kos3-4">
          <mxGeometry relative="1" as="geometry" />
        </mxCell>
        <mxCell id="GZFzV3UslixxGB8_kos3-2" value="老师：请输入学号&lt;div&gt;（input_student_id）&lt;/div&gt;" style="rounded=1;whiteSpace=wrap;html=1;absoluteArcSize=1;arcSize=14;strokeWidth=2;" vertex="1" parent="1">
          <mxGeometry x="345" y="160" width="150" height="60" as="geometry" />
        </mxCell>
        <mxCell id="GZFzV3UslixxGB8_kos3-7" value="" style="edgeStyle=orthogonalEdgeStyle;rounded=0;orthogonalLoop=1;jettySize=auto;html=1;" edge="1" parent="1" source="GZFzV3UslixxGB8_kos3-4" target="GZFzV3UslixxGB8_kos3-6">
          <mxGeometry relative="1" as="geometry" />
        </mxCell>
        <mxCell id="GZFzV3UslixxGB8_kos3-4" value="学生：输入学号或&quot;无&quot;" style="rounded=1;whiteSpace=wrap;html=1;absoluteArcSize=1;arcSize=14;strokeWidth=2;" vertex="1" parent="1">
          <mxGeometry x="345" y="270" width="150" height="60" as="geometry" />
        </mxCell>
        <mxCell id="GZFzV3UslixxGB8_kos3-9" value="" style="edgeStyle=orthogonalEdgeStyle;rounded=0;orthogonalLoop=1;jettySize=auto;html=1;" edge="1" parent="1" source="GZFzV3UslixxGB8_kos3-6" target="GZFzV3UslixxGB8_kos3-8">
          <mxGeometry relative="1" as="geometry" />
        </mxCell>
        <mxCell id="GZFzV3UslixxGB8_kos3-10" value="是" style="edgeLabel;html=1;align=center;verticalAlign=middle;resizable=0;points=[];" vertex="1" connectable="0" parent="GZFzV3UslixxGB8_kos3-9">
          <mxGeometry x="-0.0526" y="1" relative="1" as="geometry">
            <mxPoint as="offset" />
          </mxGeometry>
        </mxCell>
        <mxCell id="GZFzV3UslixxGB8_kos3-6" value="是否输入“无”" style="strokeWidth=2;html=1;shape=mxgraph.flowchart.decision;whiteSpace=wrap;" vertex="1" parent="1">
          <mxGeometry x="335" y="375" width="170" height="100" as="geometry" />
        </mxCell>
        <mxCell id="GZFzV3UslixxGB8_kos3-8" value="老师：生成学号&lt;div&gt;（gen_student_id）&lt;/div&gt;" style="rounded=1;whiteSpace=wrap;html=1;absoluteArcSize=1;arcSize=14;strokeWidth=2;" vertex="1" parent="1">
          <mxGeometry x="90" y="395" width="150" height="60" as="geometry" />
        </mxCell>
        <mxCell id="GZFzV3UslixxGB8_kos3-11" value="老师：生成学号&lt;div&gt;（gen_student_id）&lt;/div&gt;" style="rounded=1;whiteSpace=wrap;html=1;absoluteArcSize=1;arcSize=14;strokeWidth=2;" vertex="1" parent="1">
          <mxGeometry x="345" y="580" width="150" height="60" as="geometry" />
        </mxCell>
      </root>
    </mxGraphModel>
  </diagram>
</mxfile>
